<svg width="121" height="434" viewBox="0 0 121 434" fill="none" xmlns="http://www.w3.org/2000/svg">
<path d="M17.8567 420.135L52.9424 368.313" stroke="#8E4F4C" stroke-width="0.83989"/>
<path d="M22.8216 421.662L57.9072 369.841" stroke="#8E4F4C" stroke-width="0.83989"/>
<path d="M41.8974 63.4851L109.785 106.022C113.588 108.405 114.716 113.434 112.293 117.213C109.903 120.941 104.956 122.046 101.207 119.69L33.3816 77.054C29.7873 74.7946 28.5802 70.1232 30.63 66.4053C32.8508 62.3774 37.9998 61.0429 41.8974 63.4851Z" fill="#403F3F"/>
<path d="M62.6118 176.701C59.3589 163.498 59.3636 139.27 60.6105 130.462C60.6105 130.462 64.5174 129.711 67.3335 130.024C70.1495 130.337 74.2919 132.001 74.2919 132.001C71.3263 148.997 75.9374 172.646 77.1651 178.343L80.155 191.943C84.3707 210.327 93.1442 253.749 94.5132 280.365C95.8821 306.981 87.4284 328.781 83.0305 336.354L64.6728 365.785C64.6728 365.785 60.5275 363.749 58.1468 362.143C55.7661 360.536 52.4803 357.559 52.4803 357.559C58.4354 349.969 73.3681 330.409 77.3419 313.638C81.5782 295.759 81.3715 287.179 79.4456 272.71C77.5197 258.24 73.5822 233.475 73.5822 233.475C71.547 218.832 65.8648 189.904 62.6118 176.701Z" fill="#333333"/>
<path d="M62.6118 176.701C59.3589 163.498 59.3636 139.27 60.6105 130.462C60.6105 130.462 64.5174 129.711 67.3335 130.024C70.1495 130.337 74.2919 132.001 74.2919 132.001C71.3263 148.997 75.9374 172.646 77.1651 178.343L80.155 191.943C84.3707 210.327 93.1442 253.749 94.5132 280.365C95.8821 306.981 87.4284 328.781 83.0305 336.354L64.6728 365.785C64.6728 365.785 60.5275 363.749 58.1468 362.143C55.7661 360.536 52.4803 357.559 52.4803 357.559C58.4354 349.969 73.3681 330.409 77.3419 313.638C81.5782 295.759 81.3715 287.179 79.4456 272.71C77.5197 258.24 73.5822 233.475 73.5822 233.475C71.547 218.832 65.8648 189.904 62.6118 176.701Z" fill="url(#paint0_linear_747_4800)" fill-opacity="0.04"/>
<path d="M56.5245 116.084L63.8963 45.9615C63.9383 45.5616 64.2747 45.2597 64.6767 45.2667C66.3984 45.2967 70.9043 45.3964 74.0937 45.659C77.2959 45.9226 81.9592 46.529 83.7197 46.7642C84.1217 46.8179 84.4104 47.1718 84.3877 47.5768L80.4682 117.66C80.4638 117.739 80.4474 117.817 80.4194 117.891L74.8199 132.754C74.6845 133.114 74.3093 133.321 73.9327 133.246C72.577 132.973 69.4004 132.357 67.243 132.128C65.0964 131.9 61.8885 132.066 60.4969 132.157C60.1044 132.183 59.7524 131.917 59.6729 131.531L56.5363 116.323C56.5201 116.244 56.5161 116.164 56.5245 116.084Z" fill="#FFE090"/>
<path d="M56.5245 116.084L63.8963 45.9615C63.9383 45.5616 64.2747 45.2597 64.6767 45.2667C66.3984 45.2967 70.9043 45.3964 74.0937 45.659C77.2959 45.9226 81.9592 46.529 83.7197 46.7642C84.1217 46.8179 84.4104 47.1718 84.3877 47.5768L80.4682 117.66C80.4638 117.739 80.4474 117.817 80.4194 117.891L74.8199 132.754C74.6845 133.114 74.3093 133.321 73.9327 133.246C72.577 132.973 69.4004 132.357 67.243 132.128C65.0964 131.9 61.8885 132.066 60.4969 132.157C60.1044 132.183 59.7524 131.917 59.6729 131.531L56.5363 116.323C56.5201 116.244 56.5161 116.164 56.5245 116.084Z" fill="url(#paint1_linear_747_4800)" fill-opacity="0.04"/>
<path d="M47.7924 430.483C44.7722 428.585 37.758 423.79 33.5443 420.974C32.9232 420.558 32.0857 420.74 31.6864 421.372C31.2986 421.985 31.4699 422.795 32.0849 423.18C36.6349 426.031 44.5143 430.242 47.0267 431.711C47.359 431.905 47.788 431.814 48.0054 431.496C48.2356 431.16 48.1375 430.7 47.7924 430.483Z" fill="#BCC4CB"/>
<path d="M47.7924 430.483C44.7722 428.585 37.758 423.79 33.5443 420.974C32.9232 420.558 32.0857 420.74 31.6864 421.372C31.2986 421.985 31.4699 422.795 32.0849 423.18C36.6349 426.031 44.5143 430.242 47.0267 431.711C47.359 431.905 47.788 431.814 48.0054 431.496C48.2356 431.16 48.1375 430.7 47.7924 430.483Z" fill="#737373"/>
<path d="M56.5121 383.986L66.692 368.467C67.2024 367.688 66.9241 366.638 66.1001 366.206C64.1714 365.194 60.8629 363.4 58.6481 361.889C56.4583 360.395 53.6317 358.023 51.9841 356.601C51.2629 355.979 50.154 356.127 49.6319 356.924L38.9575 373.216C38.5065 373.904 38.6673 374.822 39.3319 375.307C41.0182 376.538 44.1808 378.806 46.562 380.27C48.9977 381.767 52.6593 383.605 54.5465 384.53C55.2451 384.872 56.0853 384.636 56.5121 383.986Z" fill="#FFE090"/>
<path d="M56.5121 383.986L66.692 368.467C67.2024 367.688 66.9241 366.638 66.1001 366.206C64.1714 365.194 60.8629 363.4 58.6481 361.889C56.4583 360.395 53.6317 358.023 51.9841 356.601C51.2629 355.979 50.154 356.127 49.6319 356.924L38.9575 373.216C38.5065 373.904 38.6673 374.822 39.3319 375.307C41.0182 376.538 44.1808 378.806 46.562 380.27C48.9977 381.767 52.6593 383.605 54.5465 384.53C55.2451 384.872 56.0853 384.636 56.5121 383.986Z" fill="url(#paint2_linear_747_4800)" fill-opacity="0.04"/>
<path d="M63.7499 47.4402L51.8631 39.3144C51.8631 39.3144 63.0467 35.9792 75.4 36.5796C87.7533 37.1801 99.7654 43.1304 99.7654 43.1304L84.3817 49.005C84.3817 49.005 80.6231 47.8363 73.93 47.3336C67.2369 46.8309 63.7499 47.4402 63.7499 47.4402Z" fill="#4F4F4F"/>
<path d="M63.7499 47.4402L51.8631 39.3144C51.8631 39.3144 63.0467 35.9792 75.4 36.5796C87.7533 37.1801 99.7654 43.1304 99.7654 43.1304L84.3817 49.005C84.3817 49.005 80.6231 47.8363 73.93 47.3336C67.2369 46.8309 63.7499 47.4402 63.7499 47.4402Z" fill="url(#paint3_linear_747_4800)" fill-opacity="0.04"/>
<path d="M51.1 32.8016L51.1628 38.7957C51.1695 39.4417 51.6923 39.9601 52.3384 39.9552C56.0903 39.9268 68.0865 39.8906 75.9988 40.4917C83.8076 41.0849 95.1319 42.8325 98.8823 43.4303C99.5618 43.5386 100.183 43.0406 100.231 42.3542L100.643 36.5022C100.678 35.9944 100.339 35.5361 99.8431 35.4218C99.3521 35.3087 99.014 34.8582 99.0427 34.3552L100.635 6.45539C100.664 5.94285 100.359 5.47088 99.8739 5.30195C85.0583 0.139097 64.3067 1.18181 54.7437 2.47468C54.187 2.54994 53.7709 3.01696 53.7494 3.57829L52.7071 30.7313C52.6889 31.207 52.3635 31.6156 51.9039 31.7399C51.4253 31.8693 51.0948 32.3059 51.1 32.8016Z" fill="#242729"/>
<path d="M51.1 32.8016L51.1628 38.7957C51.1695 39.4417 51.6923 39.9601 52.3384 39.9552C56.0903 39.9268 68.0865 39.8906 75.9988 40.4917C83.8076 41.0849 95.1319 42.8325 98.8823 43.4303C99.5618 43.5386 100.183 43.0406 100.231 42.3542L100.643 36.5022C100.678 35.9944 100.339 35.5361 99.8431 35.4218C99.3521 35.3087 99.014 34.8582 99.0427 34.3552L100.635 6.45539C100.664 5.94285 100.359 5.47088 99.8739 5.30195C85.0583 0.139097 64.3067 1.18181 54.7437 2.47468C54.187 2.54994 53.7709 3.01696 53.7494 3.57829L52.7071 30.7313C52.6889 31.207 52.3635 31.6156 51.9039 31.7399C51.4253 31.8693 51.0948 32.3059 51.1 32.8016Z" fill="url(#paint4_linear_747_4800)" fill-opacity="0.08"/>
<path d="M36.5659 373.088C36.8081 372.681 37.3528 372.581 37.7249 372.874C39.3717 374.171 43.5913 377.429 46.7853 379.342C50.007 381.271 55.199 383.671 57.1962 384.575C57.6288 384.771 57.7867 385.304 57.5332 385.705L30.259 428.937C29.6414 429.916 28.4033 430.295 27.352 429.811C25.1046 428.777 21.2729 426.955 18.6608 425.405C16.1217 423.898 12.8938 421.649 10.9493 420.263C9.97046 419.565 9.70095 418.236 10.3157 417.203L36.5659 373.088ZM32.7348 395.664C28.8906 395.704 25.8069 398.853 25.8472 402.697C25.8876 406.542 29.0366 409.625 32.8807 409.585C36.7248 409.545 39.8084 406.396 39.7683 402.552C39.728 398.707 36.579 395.624 32.7348 395.664ZM41.6774 382.307C37.8333 382.347 34.7496 385.496 34.7898 389.34C34.8301 393.185 37.9791 396.268 41.8233 396.228C45.6673 396.188 48.7512 393.039 48.7109 389.195C48.6706 385.351 45.5214 382.267 41.6774 382.307Z" fill="#373B3E"/>
<path d="M36.5659 373.088C36.8081 372.681 37.3528 372.581 37.7249 372.874C39.3717 374.171 43.5913 377.429 46.7853 379.342C50.007 381.271 55.199 383.671 57.1962 384.575C57.6288 384.771 57.7867 385.304 57.5332 385.705L30.259 428.937C29.6414 429.916 28.4033 430.295 27.352 429.811C25.1046 428.777 21.2729 426.955 18.6608 425.405C16.1217 423.898 12.8938 421.649 10.9493 420.263C9.97046 419.565 9.70095 418.236 10.3157 417.203L36.5659 373.088ZM32.7348 395.664C28.8906 395.704 25.8069 398.853 25.8472 402.697C25.8876 406.542 29.0366 409.625 32.8807 409.585C36.7248 409.545 39.8084 406.396 39.7683 402.552C39.728 398.707 36.579 395.624 32.7348 395.664ZM41.6774 382.307C37.8333 382.347 34.7496 385.496 34.7898 389.34C34.8301 393.185 37.9791 396.268 41.8233 396.228C45.6673 396.188 48.7512 393.039 48.7109 389.195C48.6706 385.351 45.5214 382.267 41.6774 382.307Z" fill="url(#paint5_linear_747_4800)" fill-opacity="0.04"/>
<path d="M40.9794 48.5574L108.867 91.0939C112.67 93.4772 113.798 98.5066 111.375 102.285C108.985 106.013 104.038 107.119 100.289 104.762L32.4637 62.1263C28.8693 59.8669 27.6623 55.1955 29.7121 51.4776C31.9328 47.4497 37.0818 46.1152 40.9794 48.5574Z" fill="#393939"/>
<path d="M25.279 63.0123C23.9365 67.3838 30.5142 76.0176 35.0763 78.101L40.9454 67.4731L35.7754 64.2519C32.8609 62.1134 26.6214 58.6408 25.279 63.0123Z" fill="#403F3F"/>
<path d="M32.6552 62.3373C31.4096 61.6249 29.109 59.9479 25.0668 59.1785C24.1985 59.0133 23.7755 59.218 23.5374 59.5273L29.7552 51.4281C27.3941 57.0286 30.5365 60.454 32.6552 62.3373Z" fill="#393939"/>
<path d="M34.0755 63.0263C32.83 62.3138 30.1036 60.5243 27.8578 59.8582C25.612 59.192 24.0502 58.7302 23.4806 59.6034C22.9111 60.4766 24.4531 64.5415 25.7108 67.0223C25.1417 65.2517 24.9401 61.7443 27.3462 61.4503C29.7523 61.1563 33.1968 62.5728 34.0755 63.0263Z" fill="#4E4B4B"/>
<path d="M34.0755 63.0263C32.83 62.3138 30.1036 60.5243 27.8578 59.8582C25.612 59.192 24.0502 58.7302 23.4806 59.6034C22.9111 60.4766 24.4531 64.5415 25.7108 67.0223C25.1417 65.2517 24.9401 61.7443 27.3462 61.4503C29.7523 61.1563 33.1968 62.5728 34.0755 63.0263Z" fill="black" fill-opacity="0.2"/>
<g filter="url(#filter0_d_747_4800)">
<circle cx="70.4855" cy="74.8973" r="4.51687" transform="rotate(-27.4641 70.4855 74.8973)" fill="#FFF6DE"/>
</g>
<defs>
<filter id="filter0_d_747_4800" x="64.289" y="68.6991" width="20.7936" height="20.7956" filterUnits="userSpaceOnUse" color-interpolation-filters="sRGB">
<feFlood flood-opacity="0" result="BackgroundImageFix"/>
<feColorMatrix in="SourceAlpha" type="matrix" values="0 0 0 0 0 0 0 0 0 0 0 0 0 0 0 0 0 0 127 0" result="hardAlpha"/>
<feOffset dx="4.19945" dy="4.19945"/>
<feGaussianBlur stdDeviation="2.93961"/>
<feComposite in2="hardAlpha" operator="out"/>
<feColorMatrix type="matrix" values="0 0 0 0 0 0 0 0 0 0 0 0 0 0 0 0 0 0 0.5 0"/>
<feBlend mode="normal" in2="BackgroundImageFix" result="effect1_dropShadow_747_4800"/>
<feBlend mode="normal" in="SourceGraphic" in2="effect1_dropShadow_747_4800" result="shape"/>
</filter>
<linearGradient id="paint0_linear_747_4800" x1="62.0101" y1="154.218" x2="121.955" y2="336.567" gradientUnits="userSpaceOnUse">
<stop stop-color="white"/>
<stop offset="1"/>
</linearGradient>
<linearGradient id="paint1_linear_747_4800" x1="63.642" y1="54.3256" x2="77.3977" y2="127.218" gradientUnits="userSpaceOnUse">
<stop stop-color="white"/>
<stop offset="1"/>
</linearGradient>
<linearGradient id="paint2_linear_747_4800" x1="46.0193" y1="358.517" x2="47.7568" y2="383.831" gradientUnits="userSpaceOnUse">
<stop stop-color="white"/>
<stop offset="1"/>
</linearGradient>
<linearGradient id="paint3_linear_747_4800" x1="64.846" y1="37.8799" x2="65.1232" y2="48.6576" gradientUnits="userSpaceOnUse">
<stop/>
<stop offset="1" stop-color="white"/>
</linearGradient>
<linearGradient id="paint4_linear_747_4800" x1="64.3608" y1="5.85755" x2="66.5233" y2="42.0569" gradientUnits="userSpaceOnUse">
<stop stop-color="white"/>
<stop offset="1"/>
</linearGradient>
<linearGradient id="paint5_linear_747_4800" x1="22.1525" y1="378.458" x2="26.0586" y2="427.92" gradientUnits="userSpaceOnUse">
<stop stop-color="white"/>
<stop offset="1"/>
</linearGradient>
</defs>
</svg>
