<svg preserveAspectRatio="none" width="100%" height="100%" overflow="visible" style="display: block;" viewBox="0 0 15.5 16.5001" fill="none" xmlns="http://www.w3.org/2000/svg">
<g id="elements">
<path id="Icon" d="M9.69054 2.58706C11.3235 3.51475 12.6067 4.24375 13.5209 4.91154C14.4413 5.58392 15.1221 6.2867 15.3659 7.21321C15.5447 7.89269 15.5447 8.60743 15.3659 9.28691C15.1221 10.2134 14.4413 10.9162 13.5209 11.5886C12.6067 12.2564 11.3235 12.9854 9.69059 13.913L9.69058 13.913C8.11319 14.8092 6.78303 15.5649 5.77322 15.9944C4.7553 16.4274 3.82729 16.6468 2.92536 16.3912C2.26252 16.2034 1.65941 15.8469 1.17356 15.3567C0.514188 14.6914 0.24951 13.772 0.124288 12.6654C-1.76951e-05 11.567 -9.82927e-06 10.129 1.79089e-07 8.30017V8.30015V8.19997V8.19996C-9.82927e-06 6.37108 -1.76951e-05 4.93315 0.124288 3.8347C0.24951 2.72816 0.514188 1.80867 1.17356 1.14341C1.65941 0.653232 2.26252 0.296724 2.92536 0.108895C3.82729 -0.146689 4.7553 0.0727526 5.77322 0.505712C6.78303 0.93522 8.11316 1.6909 9.69054 2.58706Z" fill="var(--fill-0, white)"/>
</g>
</svg>
